<svg width="19" height="19" viewBox="0 0 19 19" fill="none" xmlns="http://www.w3.org/2000/svg">
<path d="M17 3V13.5L18.95 15.45C18.98 15.3 19 15.15 19 15V3C19 1.9 18.1 1 17 1H4.5L6.5 3H17Z" fill="#323232"/>
<path d="M1.86063 0.95C1.51063 0.6 0.940625 0.6 0.590625 0.95C0.240625 1.3 0.240625 1.87 0.590625 2.22L1.00063 2.64V15C1.00063 16.1 1.90063 17 3.00063 17H15.3606L16.7806 18.42C17.1306 18.77 17.7006 18.77 18.0506 18.42C18.4006 18.07 18.4006 17.5 18.0506 17.15L1.86063 0.95ZM3.00063 15V4.64L13.3606 15H3.00063Z" fill="#323232"/>
</svg>
