<svg width="143" height="134" viewBox="0 0 143 134" fill="none" xmlns="http://www.w3.org/2000/svg">
<path d="M104.679 100.662L33.3448 119.016C28.3065 120.307 23.1738 117.278 21.871 112.247L0.297608 28.5399C-0.993734 23.5058 2.03688 18.3773 7.0722 17.0757L73.4373 0L90.4236 7.59794L111.454 89.1977C112.745 94.2318 109.715 99.3603 104.679 100.662Z" fill="#F2F2F2"/>
<path d="M8.05442 19.7933C4.45573 20.7176 2.28978 24.3598 3.2127 27.9349L24.8639 111.414C25.7949 114.987 29.4633 117.137 33.064 116.221L104.656 97.9166C108.254 96.9922 110.42 93.3501 109.497 89.775L88.7183 9.65902L73.7366 3L8.05442 19.7933Z" fill="white"/>
<path d="M90.6602 7.93432L79.82 10.8216C78.1721 11.2605 76.4922 10.2346 76.0678 8.5301L74.0061 0.248856C73.9877 0.174875 74.0118 0.0965168 74.0682 0.0471587C74.1245 -0.0021994 74.2032 -0.0138601 74.2707 0.0171438L90.6903 7.55939C90.7652 7.5938 90.8109 7.67346 90.8041 7.75793C90.7973 7.84241 90.7395 7.91318 90.6602 7.93432Z" fill="#F2F2F2"/>
<path d="M84.9354 79.1588L51.9886 87.7126C51.4379 87.8555 50.8534 87.6915 50.4553 87.2821C50.0571 86.8728 49.9058 86.2804 50.0584 85.7281C50.2109 85.1758 50.6441 84.7475 51.1948 84.6045L84.1416 76.0507C84.6922 75.9078 85.2767 76.0719 85.6749 76.4812C86.073 76.8905 86.2243 77.4829 86.0718 78.0352C85.9193 78.5875 85.4861 79.0158 84.9354 79.1588Z" fill="#CCCCCC"/>
<path d="M91.8315 83.1657L52.9667 93.3926C52.1249 93.6141 51.2669 93.0964 51.0501 92.2362C50.8333 91.3761 51.34 90.4992 52.1817 90.2777L91.0465 80.0508C91.8879 79.8303 92.7451 80.348 92.9617 81.2076C93.1784 82.0672 92.6725 82.9436 91.8315 83.1657H91.8315Z" fill="#CCCCCC"/>
<circle cx="39.4615" cy="92.4615" r="5.46154" fill="#E6E6E6"/>
<path d="M81.5163 64.9649L38.1754 76.1416C35.5674 76.8111 32.9107 75.2392 32.2366 72.628L23.1539 37.2805C22.4857 34.6678 24.0547 32.0063 26.6612 31.331L70.0021 20.1542C72.6101 19.4848 75.2668 21.0566 75.9409 23.6678L85.0236 59.0153C85.6918 61.6281 84.1228 64.2896 81.5163 64.9649Z" fill="white"/>
<path fill-rule="evenodd" clip-rule="evenodd" d="M38.1754 76.1416L81.5163 64.9649C81.9191 64.8605 82.2972 64.7087 82.646 64.517C83.506 64.0878 84.1797 63.3897 84.5884 62.5564C85.1532 61.5108 85.3413 60.2576 85.0236 59.0153L75.9409 23.6678C75.2668 21.0566 72.6101 19.4848 70.0021 20.1542L26.6612 31.331C24.0547 32.0063 22.4857 34.6678 23.1539 37.2805L32.2366 72.628C32.9107 75.2392 35.5674 76.8111 38.1754 76.1416ZM84.5884 62.5564C85.0253 61.6657 85.1592 60.6204 84.8941 59.5838L75.8115 24.2363C75.2167 21.9323 72.8725 20.5454 70.5713 21.1361L27.2305 32.3128C24.9306 32.9087 23.5462 35.2571 24.1358 37.5624L33.2185 72.91C33.8133 75.2139 36.1574 76.6008 38.4586 76.0102L81.7995 64.8334C82.0978 64.7561 82.3808 64.6494 82.646 64.517C83.4811 64.058 84.1489 63.3701 84.5884 62.5564Z" fill="#E6E6E6"/>
<path d="M67.9577 31.6274L45.9884 37.5317C45.5899 37.6479 45.1733 37.4219 45.0351 37.0147C44.9725 36.8075 44.9942 36.5826 45.0952 36.3926C45.1962 36.2026 45.3675 36.0644 45.569 36.0102L67.9324 30C68.8358 30.4779 68.5981 31.4553 67.9575 31.6275L67.9577 31.6274Z" fill="#F2F2F2"/>
<path d="M67.9577 35.6274L45.9884 41.5317C45.5899 41.6479 45.1733 41.4219 45.0351 41.0147C44.9725 40.8075 44.9942 40.5826 45.0952 40.3926C45.1962 40.2026 45.3675 40.0644 45.569 40.0102L67.9324 34C68.8358 34.4779 68.5981 35.4553 67.9575 35.6275L67.9577 35.6274Z" fill="#F2F2F2"/>
<path d="M42.4651 45.2352L35.9938 46.8971C35.5538 47.0097 35.1055 46.7455 34.9918 46.3067L33.026 38.6876C32.9132 38.2486 33.1779 37.8013 33.6178 37.6879L40.089 36.0259C40.529 35.9135 40.9772 36.1776 41.0911 36.6163L43.0568 44.2354C43.1696 44.6744 42.9049 45.1217 42.4651 45.2352V45.2352Z" fill="#E6E6E6"/>
<path d="M69.8909 44.5381L36.9705 53.0541C36.5792 53.1639 36.1701 52.9503 36.0345 52.5655C35.973 52.3697 35.9943 52.1571 36.0935 51.9776C36.1926 51.798 36.3608 51.6673 36.5587 51.6162L69.8663 43C70.7532 43.4516 70.5198 44.3754 69.8909 44.5381L69.8909 44.5381Z" fill="#F2F2F2"/>
<path d="M70.8909 47.5381L37.9705 56.0541C37.5792 56.1639 37.1701 55.9503 37.0345 55.5655C36.973 55.3697 36.9943 55.1571 37.0935 54.9776C37.1926 54.798 37.3608 54.6673 37.5587 54.6162L70.8663 46C71.7532 46.4516 71.5198 47.3754 70.8909 47.5381L70.8909 47.5381Z" fill="#F2F2F2"/>
<path d="M72.8909 51.5381L39.9705 60.0541C39.5792 60.1639 39.1701 59.9503 39.0345 59.5655C38.973 59.3697 38.9943 59.1571 39.0935 58.9776C39.1926 58.798 39.3608 58.6673 39.5587 58.6162L72.8663 50C73.7532 50.4516 73.5198 51.3754 72.8909 51.5381H72.8909Z" fill="#F2F2F2"/>
<path d="M72.8909 55.5381L39.9705 64.0541C39.5792 64.1639 39.1701 63.9503 39.0345 63.5655C38.973 63.3697 38.9943 63.1571 39.0935 62.9776C39.1926 62.798 39.3608 62.6673 39.5587 62.6162L72.8663 54C73.7532 54.4516 73.5198 55.3754 72.8909 55.5381L72.8909 55.5381Z" fill="#F2F2F2"/>
<path d="M73.8909 59.5381L40.9705 68.0541C40.5792 68.1639 40.1701 67.9503 40.0345 67.5655C39.973 67.3697 39.9943 67.1571 40.0935 66.9776C40.1926 66.798 40.3608 66.6673 40.5587 66.6162L73.8663 58C74.7532 58.4516 74.5198 59.3754 73.8909 59.5381H73.8909Z" fill="#F2F2F2"/>
<path d="M39.2461 95.0217C39.1247 95.0552 38.9964 95.0458 38.8805 94.9948L38.8734 94.9917L37.3552 94.3057C37.1635 94.2192 37.0297 94.0301 37.0043 93.8099C36.979 93.5897 37.0659 93.3718 37.2323 93.2385C37.3987 93.1051 37.6192 93.0767 37.8106 93.1638L38.7944 93.6098L40.0835 90.3775C40.1439 90.2261 40.2582 90.1065 40.4013 90.045C40.5444 89.9835 40.7046 89.9851 40.8466 90.0494L40.8468 90.0495L40.839 90.0707L40.8471 90.0494C41.1426 90.1838 41.2802 90.5478 41.1548 90.863L39.6381 94.6635C39.5669 94.8411 39.4221 94.9732 39.2464 95.0209L39.2461 95.0217Z" fill="white"/>
<path d="M133.012 133.03H59.4138C54.2171 133.024 50.0059 128.822 50 123.637V37.3929C50.0059 32.2078 54.2171 28.0059 59.4138 28H127.885L142.426 39.5643V123.637C142.42 128.822 138.209 133.024 133.012 133.03Z" fill="#E6E6E6"/>
<path d="M58.7329 30C55.0162 30.0042 52.0042 33.0075 52 36.7135V123.275C52.0042 126.981 55.0162 129.984 58.7329 129.988H132.652C136.368 129.984 139.38 126.981 139.385 123.275V40.2004L126.55 30H58.7329Z" fill="white"/>
<path d="M117.389 55.3609H83.5816C82.7081 55.3609 82 54.6086 82 53.6805C82 52.7524 82.7081 52 83.5816 52H117.389C118.262 52 118.97 52.7524 118.97 53.6805C118.97 54.6086 118.262 55.3609 117.389 55.3609Z" fill="#EF8354"/>
<path d="M124.292 60.3609H84.5562C83.6964 60.3597 83 59.6077 83 58.6805C83 57.7533 83.6964 57.0013 84.5562 57H124.292C124.849 56.9992 125.364 57.3193 125.643 57.8396C125.922 58.3599 125.922 59.0011 125.643 59.5214C125.364 60.0416 124.849 60.3618 124.292 60.3609Z" fill="#EF8354"/>
<path d="M117.389 76H83.5816C82.7081 76 82 76.7524 82 77.6805C82 78.6086 82.7081 79.3609 83.5816 79.3609H117.389C118.262 79.3609 118.97 78.6086 118.97 77.6805C118.97 76.7524 118.262 76 117.389 76Z" fill="#CCCCCC"/>
<path d="M124.294 81H84.5582C83.6976 81 83 81.7524 83 82.6805C83 83.6086 83.6976 84.3609 84.5582 84.3609H124.294C125.154 84.3609 125.852 83.6086 125.852 82.6805C125.852 81.7524 125.154 81 124.294 81Z" fill="#CCCCCC"/>
<path d="M117.389 102.361H83.5816C82.7081 102.361 82 101.609 82 100.68C82 99.7524 82.7081 99 83.5816 99H117.389C118.262 99 118.97 99.7524 118.97 100.68C118.97 101.609 118.262 102.361 117.389 102.361Z" fill="#CCCCCC"/>
<path d="M124.292 108.361H84.5562C83.6964 108.36 83 107.608 83 106.68C83 105.753 83.6964 105.001 84.5562 105H124.292C124.849 104.999 125.364 105.319 125.643 105.84C125.922 106.36 125.922 107.001 125.643 107.521C125.364 108.042 124.849 108.362 124.292 108.361Z" fill="#CCCCCC"/>
<circle cx="70.4615" cy="55.4615" r="5.46154" fill="#EF8354"/>
<path d="M69.9738 58.2012C69.8431 58.2014 69.7158 58.1612 69.6112 58.0866L69.6047 58.082L68.2387 57.0889C68.0661 56.9637 67.977 56.7604 68.0051 56.5557C68.0332 56.351 68.1742 56.1762 68.3749 56.0973C68.5756 56.0184 68.8053 56.0473 68.9774 56.1733L69.8621 56.8181L71.9529 54.2258C72.0508 54.1044 72.1954 54.025 72.3549 54.005C72.5145 53.9849 72.6758 54.026 72.8036 54.119L72.8037 54.1191L72.7908 54.1363L72.8041 54.1191C73.0697 54.3132 73.1199 54.675 72.9163 54.9278L70.4572 57.9755C70.3419 58.1179 70.1634 58.201 69.9744 58.2005L69.9738 58.2012Z" fill="white"/>
<path d="M76.9231 80.4611C76.9236 81.9093 76.3486 83.2984 75.3244 84.3227C74.3002 85.3471 72.9109 85.9226 71.4621 85.9228C71.4152 85.9238 71.3682 85.9219 71.3215 85.9172C68.3242 85.8404 65.9493 83.3624 66.0008 80.3657C66.0524 77.3689 68.5111 74.974 71.5093 75.0002C74.5075 75.0264 76.9239 77.4639 76.9231 80.4611Z" fill="#CCCCCC"/>
<circle cx="70.4615" cy="103.462" r="5.46154" fill="#CCCCCC"/>
<path d="M141.923 39.7633H130.221C128.442 39.7633 127 38.3573 127 36.6229V28.1963C127 28.121 127.044 28.0524 127.114 28.0196C127.183 27.9868 127.266 27.9957 127.326 28.0424L142.048 39.4132C142.115 39.465 142.141 39.5527 142.113 39.6316C142.085 39.7104 142.009 39.7633 141.923 39.7633Z" fill="#CCCCCC"/>
<path d="M76.7219 80.4218C76.7225 81.8804 76.1232 83.2795 75.056 84.3112C73.9888 85.3429 72.5411 85.9226 71.0315 85.9228C70.9826 85.9238 70.9336 85.9219 70.885 85.9172C69.3929 82.3212 69.805 78.2486 71.9897 75C74.723 75.4527 76.7213 77.7422 76.7219 80.4218Z" fill="#EF8354"/>
<path d="M83 77.682C83.0015 76.7537 83.7015 76.0017 84.5653 76H92.8957C93.3822 77.0634 93.7281 78.1947 93.9231 79.3609H84.5653C83.702 79.3607 83.0018 78.6097 83 77.682H83Z" fill="#EF8354"/>
<path d="M93.9231 81C93.9236 82.1351 93.7863 83.2653 93.5147 84.3609H84.5369C83.6881 84.3609 83 83.6086 83 82.6805C83 81.7524 83.6881 81 84.5369 81H93.9231Z" fill="#EF8354"/>
<path d="M115.275 101.125C114.78 101.951 113.72 102.212 112.909 101.708L92.825 89.246C92.3 88.9203 91.9857 88.3343 92.0005 87.7089C92.0153 87.0835 92.357 86.5136 92.8969 86.2139C93.4367 85.9143 94.0927 85.9304 94.6177 86.2562L114.701 98.7182C115.513 99.2218 115.77 100.299 115.275 101.125Z" fill="#3F3D56"/>
<path fill-rule="evenodd" clip-rule="evenodd" d="M80.7254 94.5611C86.2663 95.4268 91.7831 92.87 94.7034 88.083C98.6818 81.5449 96.6164 73.0206 90.0864 69.028C85.2987 66.1081 79.2233 66.3593 74.6931 69.6646C70.1629 72.9699 68.07 78.6782 69.3905 84.1279C70.7109 89.5776 75.1846 93.6953 80.7254 94.5611ZM76.9854 89.2716C72.0823 86.2812 70.532 79.8828 73.5227 74.9804C76.5176 70.0835 82.9116 68.5347 87.8158 71.5181C92.719 74.5084 94.2693 80.9068 91.2786 85.8093C88.2878 90.7118 81.8886 92.2619 76.9854 89.2716Z" fill="#3F3D56"/>
</svg>
