<svg width="23" height="21" viewBox="0 0 23 21" fill="none" xmlns="http://www.w3.org/2000/svg">
<path d="M20.2891 4.8897L10.2891 14.8897C9.89915 15.2797 9.26915 15.2797 8.87915 14.8897L6.04915 12.0597C5.65915 11.6697 5.65915 11.0397 6.04915 10.6497C6.43915 10.2597 7.06915 10.2597 7.45915 10.6497L9.57915 12.7697L18.8691 3.4797C19.2591 3.0897 19.8891 3.0897 20.2791 3.4797C20.6791 3.8697 20.6791 4.4997 20.2891 4.8897ZM10.9991 18.9997C6.28915 18.9997 2.51915 14.9097 3.04915 10.0997C3.43915 6.5797 6.16915 3.6897 9.65915 3.1097C11.4691 2.8097 13.1891 3.1297 14.6491 3.8897C15.0391 4.0897 15.5091 4.0197 15.8191 3.7097C16.2991 3.2297 16.1791 2.4197 15.5791 2.1097C14.1091 1.3597 12.4491 0.949701 10.6791 0.999701C5.53915 1.1597 1.26915 5.3397 1.00915 10.4697C0.719146 16.2397 5.29915 20.9997 10.9991 20.9997C12.1991 20.9997 13.3391 20.7897 14.4091 20.3997C15.0891 20.1497 15.2791 19.2697 14.7591 18.7497C14.4891 18.4797 14.0791 18.3797 13.7191 18.5197C12.8691 18.8297 11.9491 18.9997 10.9991 18.9997ZM17.9991 13.9997H15.9991C15.4491 13.9997 14.9991 14.4497 14.9991 14.9997C14.9991 15.5497 15.4491 15.9997 15.9991 15.9997H17.9991V17.9997C17.9991 18.5497 18.4491 18.9997 18.9991 18.9997C19.5491 18.9997 19.9991 18.5497 19.9991 17.9997V15.9997H21.9991C22.5491 15.9997 22.9991 15.5497 22.9991 14.9997C22.9991 14.4497 22.5491 13.9997 21.9991 13.9997H19.9991V11.9997C19.9991 11.4497 19.5491 10.9997 18.9991 10.9997C18.4491 10.9997 17.9991 11.4497 17.9991 11.9997V13.9997Z" fill="#3F4947"/>
</svg>
